<svg width="37" height="36" viewBox="0 0 37 36" fill="none" xmlns="http://www.w3.org/2000/svg">
<path d="M32.3335 0H4.3335C3.27263 0 2.25521 0.421427 1.50507 1.17157C0.754923 1.92172 0.333496 2.93913 0.333496 4V32C0.333496 33.0609 0.754923 34.0783 1.50507 34.8284C2.25521 35.5786 3.27263 36 4.3335 36H32.3335C33.3944 36 34.4118 35.5786 35.1619 34.8284C35.9121 34.0783 36.3335 33.0609 36.3335 32V4C36.3335 2.93913 35.9121 1.92172 35.1619 1.17157C34.4118 0.421427 33.3944 0 32.3335 0ZM18.3335 21H16.3335V24H13.3335V21H7.3335V12H10.3335V18H13.3335V12H16.3335V18H18.3335V21ZM30.3335 24H26.7335L23.1335 19.6V24H20.3335V12H23.3335V16.4L26.7335 12H30.3335L25.9335 18L30.3335 24Z" fill="white"/>
</svg>
