<svg width="44" height="43" viewBox="0 0 44 43" fill="none" xmlns="http://www.w3.org/2000/svg">
<path d="M22.4 14.9999L18.4 10.9999H24C26.2 10.9999 28 12.7999 28 14.9999V20.5999L24 16.5999V14.9999H22.4ZM44 14.9999V10.9999H36C33.8 10.9999 32 12.7999 32 14.9999V18.9999C32 21.1999 33.8 22.9999 36 22.9999H40V26.9999H34.4L38.4 30.9999H40C42.2 30.9999 44 29.1999 44 26.9999V22.9999C44 20.7999 42.2 18.9999 40 18.9999H36V14.9999H44ZM42.2 39.9999L39.6 42.5999L26.8 29.7999C26.2 30.3999 25.2 30.9999 24 30.9999H16V18.7999L12 14.7999V30.9999H8V22.9999H4V30.9999H0V14.9999C0 12.7999 1.8 10.9999 4 10.9999H8.2L0.2 2.9999L2.8 0.399902L42.2 39.9999ZM8 14.9999H4V18.9999H8V14.9999ZM24 26.7999L20 22.7999V26.9999H24V26.7999Z" fill="white"/>
</svg>
