<svg width="30" height="26" viewBox="0 0 30 26" fill="none" xmlns="http://www.w3.org/2000/svg">
<path d="M25.6548 2.36182L20.8168 3.20682L24.1899 7.04182L26.6151 6.60848L25.6548 2.36182ZM17.1974 3.83515L14.7723 4.25765L18.1577 8.08182L20.5705 7.65932L17.1974 3.83515ZM11.1652 4.87515L8.74006 5.31932L12.1255 9.14348L14.5384 8.72098L11.1652 4.87515ZM5.12075 5.95848L3.91431 6.16432C3.27463 6.27679 2.71181 6.60805 2.34943 7.08537C1.98706 7.56269 1.85474 8.14705 1.98154 8.71015L2.46166 10.8335L8.49385 9.78265L5.12075 5.95848ZM2.46166 10.8335V21.6668C2.46166 22.8693 3.56961 23.8335 4.92378 23.8335H24.6207C25.9872 23.8335 27.0829 22.8693 27.0829 21.6668V10.8335H2.46166Z" fill="white"/>
</svg>
