<svg width="41" height="40" viewBox="0 0 41 40" fill="none" xmlns="http://www.w3.org/2000/svg">
<path d="M20.667 0C23.2934 0 25.8941 0.517315 28.3207 1.52241C30.7472 2.5275 32.952 4.00069 34.8091 5.85786C36.6663 7.71503 38.1395 9.91982 39.1446 12.3463C40.1497 14.7728 40.667 17.3736 40.667 20C40.667 25.3043 38.5599 30.3914 34.8091 34.1421C31.0584 37.8929 25.9713 40 20.667 40C18.0406 40 15.4398 39.4827 13.0133 38.4776C10.5868 37.4725 8.38203 35.9993 6.52486 34.1421C2.77413 30.3914 0.666992 25.3043 0.666992 20C0.666992 14.6957 2.77413 9.60859 6.52486 5.85786C10.2756 2.10714 15.3627 0 20.667 0ZM20.667 4C19.3409 4 18.0691 4.52678 17.1315 5.46447C16.1938 6.40215 15.667 7.67392 15.667 9C15.667 10.3261 16.1938 11.5979 17.1315 12.5355C18.0691 13.4732 19.3409 14 20.667 14C21.9931 14 23.2648 13.4732 24.2025 12.5355C25.1402 11.5979 25.667 10.3261 25.667 9C25.667 7.67392 25.1402 6.40215 24.2025 5.46447C23.2648 4.52678 21.9931 4 20.667 4ZM5.46699 15.06C4.60699 17.68 6.04699 20.5 8.66699 21.36C11.307 22.2 14.127 20.78 14.967 18.14C15.827 15.52 14.387 12.7 11.767 11.84C9.14699 11 6.30699 12.42 5.46699 15.06ZM35.887 15C35.027 12.42 32.207 11 29.587 11.84C26.947 12.68 25.507 15.5 26.367 18.14C27.227 20.76 30.047 22.2 32.667 21.34C35.287 20.5 36.727 17.66 35.887 15ZM11.287 32.92C13.507 34.56 16.667 34.06 18.267 31.82C19.887 29.58 19.387 26.46 17.147 24.84C14.927 23.22 11.787 23.72 10.167 25.94C8.54699 28.18 9.04699 31.3 11.287 32.92ZM30.067 32.92C32.307 31.3 32.807 28.18 31.187 25.94C29.567 23.7 26.427 23.2 24.207 24.84C21.967 26.46 21.467 29.58 23.087 31.82C24.667 34.06 27.847 34.54 30.067 32.92ZM20.667 17C19.8713 17 19.1083 17.3161 18.5457 17.8787C17.9831 18.4413 17.667 19.2043 17.667 20C17.667 20.7956 17.9831 21.5587 18.5457 22.1213C19.1083 22.6839 19.8713 23 20.667 23C21.4626 23 22.2257 22.6839 22.7883 22.1213C23.3509 21.5587 23.667 20.7956 23.667 20C23.667 19.2043 23.3509 18.4413 22.7883 17.8787C22.2257 17.3161 21.4626 17 20.667 17Z" fill="white"/>
</svg>
