<svg width="41" height="40" viewBox="0 0 41 40" fill="none" xmlns="http://www.w3.org/2000/svg">
<path d="M32.667 12H8.66699V8H32.667V12ZM32.667 18H8.66699V14H32.667V18ZM32.667 24H8.66699V20H32.667V24ZM40.667 4C40.667 2.93913 40.2456 1.92172 39.4954 1.17157C38.7453 0.421427 37.7279 0 36.667 0H4.66699C3.60613 0 2.58871 0.421427 1.83856 1.17157C1.08842 1.92172 0.666992 2.93913 0.666992 4V28C0.666992 29.0609 1.08842 30.0783 1.83856 30.8284C2.58871 31.5786 3.60613 32 4.66699 32H32.667L40.667 40V4Z" fill="white"/>
</svg>
