<svg width="46" height="36" viewBox="0 0 46 36" fill="none" xmlns="http://www.w3.org/2000/svg">
<path d="M4 0H38C39.0609 0 40.0783 0.421427 40.8284 1.17157C41.5786 1.92172 42 2.93913 42 4V8H34V4H8V28H26V32H4C2.93913 32 1.92172 31.5786 1.17157 30.8284C0.421427 30.0783 0 29.0609 0 28V4C0 2.93913 0.421427 1.92172 1.17157 1.17157C1.92172 0.421427 2.93913 0 4 0ZM32 12H44C44.5304 12 45.0391 12.2107 45.4142 12.5858C45.7893 12.9609 46 13.4696 46 14V34C46 34.5304 45.7893 35.0391 45.4142 35.4142C45.0391 35.7893 44.5304 36 44 36H32C31.4696 36 30.9609 35.7893 30.5858 35.4142C30.2107 35.0391 30 34.5304 30 34V14C30 13.4696 30.2107 12.9609 30.5858 12.5858C30.9609 12.2107 31.4696 12 32 12ZM34 16V30H42V16H34Z" fill="white"/>
</svg>
